<?xml version="1.0" standalone="no"?>
<!DOCTYPE svg PUBLIC "-//W3C//DTD SVG 20010904//EN"
 "http://www.w3.org/TR/2001/REC-SVG-20010904/DTD/svg10.dtd">
<svg version="1.0" xmlns="http://www.w3.org/2000/svg"
 width="512.000000pt" height="512.000000pt" viewBox="0 0 512.000000 512.000000"
 preserveAspectRatio="xMidYMid meet">
<metadata>
Created by potrace 1.14, written by Peter Selinger 2001-2017
</metadata>
<g transform="translate(0.000000,512.000000) scale(0.100000,-0.100000)"
fill="#000000" stroke="none">
<path d="M2405 4920 c-11 -5 -45 -34 -75 -66 -61 -64 -116 -93 -187 -98 -57
-4 -83 4 -185 55 -71 35 -83 38 -147 35 -116 -5 -197 -68 -242 -188 -30 -80
-69 -131 -126 -165 -51 -29 -70 -31 -264 -23 -77 3 -136 -19 -187 -70 -55 -54
-72 -101 -81 -214 -10 -117 -29 -165 -87 -216 -40 -34 -83 -56 -130 -64 -99
-18 -133 -33 -182 -80 -77 -72 -100 -177 -63 -287 30 -90 34 -150 15 -207 -23
-68 -53 -103 -136 -156 -85 -56 -131 -111 -147 -181 -22 -97 7 -182 94 -279
24 -25 47 -92 50 -140 4 -69 -18 -129 -70 -198 -67 -87 -78 -114 -79 -193 0
-111 38 -169 159 -246 132 -83 168 -189 119 -345 -29 -91 -30 -154 -3 -214 40
-88 106 -138 214 -160 82 -17 124 -35 164 -73 53 -50 81 -120 81 -201 0 -115
36 -196 111 -252 60 -44 110 -52 239 -40 103 10 150 -1 212 -48 42 -33 68 -73
111 -177 21 -51 72 -106 121 -132 32 -17 58 -22 116 -21 69 0 82 3 159 43 72
38 93 44 145 44 85 1 138 -26 216 -107 88 -92 126 -111 220 -111 95 0 133 20
218 110 68 73 121 102 197 108 55 5 102 -8 188 -54 159 -84 323 -20 387 150
29 80 72 136 128 169 50 28 82 31 257 22 80 -4 137 16 192 67 54 51 73 103 83
220 7 89 12 111 37 151 43 70 99 108 190 128 90 19 137 41 177 80 72 73 91
170 56 285 -53 172 -21 270 114 359 54 35 68 49 78 81 40 134 -118 453 -456
924 -55 77 -106 147 -113 155 -7 8 -41 51 -75 96 -89 115 -122 155 -133 168
-6 6 -39 47 -75 91 -35 44 -67 82 -70 85 -3 3 -28 32 -55 65 -28 33 -54 65
-60 71 -5 6 -35 39 -65 74 -30 35 -66 75 -80 90 -14 15 -61 67 -105 116 -88
99 -542 555 -621 624 -27 25 -72 63 -99 85 -27 22 -62 52 -79 66 -60 51 -195
139 -247 163 -64 30 -97 36 -124 26z"/>
</g>
</svg>
