<svg viewBox="0 0 512 512" fill="none" xmlns="http://www.w3.org/2000/svg">
    <g clip-path="url(#clip0_39_20)">
        <mask id="mask0_39_20" style="mask-type:alpha" maskUnits="userSpaceOnUse" x="0" y="0" width="513" height="512">
            <path
                d="M240.5 0H0V512H512L512 360.5C512 360.5 441.5 343 482.5 315.5C523.5 288 265.5 -4 238.5 21C211.5 46 240.5 0 240.5 0Z"
                fill="#FF0000" />
        </mask>
        <g mask="url(#mask0_39_20)">
            <path
                d="M234.034 25.6583C236.056 23.2963 237.067 22.1153 237.974 21.2428C248.041 11.559 263.959 11.559 274.026 21.2428C274.933 22.1153 275.944 23.2963 277.966 25.6583C279.44 27.3808 280.177 28.242 280.887 28.9519C288.617 36.6854 300.36 38.7559 310.269 34.1327C311.178 33.7083 312.166 33.1512 314.141 32.0369C316.849 30.509 318.203 29.745 319.353 29.2353C332.124 23.5783 347.083 29.0228 353.23 41.5655C353.784 42.6956 354.33 44.1512 355.422 47.0623C356.219 49.1852 356.617 50.2467 357.041 51.1564C361.66 61.0674 371.987 67.0293 382.879 66.074C383.879 65.9863 384.997 65.8005 387.234 65.4288C390.301 64.9192 391.835 64.6644 393.091 64.579C407.026 63.6311 419.221 73.8635 420.707 87.7522C420.841 89.0036 420.857 90.5581 420.887 93.6672C420.91 95.9345 420.921 97.0682 421.008 98.0681C421.959 108.961 429.623 118.095 440.186 120.923C441.155 121.183 442.27 121.391 444.499 121.806C447.556 122.377 449.084 122.662 450.293 123.011C463.712 126.886 471.672 140.673 468.318 154.232C468.016 155.454 467.499 156.92 466.465 159.852C465.71 161.99 465.333 163.059 465.073 164.029C462.241 174.59 466.319 185.795 475.277 192.065C476.099 192.64 477.076 193.217 479.028 194.37C481.705 195.951 483.044 196.741 484.061 197.483C495.345 205.715 498.11 221.392 490.321 232.987C489.619 234.031 488.632 235.232 486.657 237.633C485.216 239.385 484.496 240.26 483.92 241.082C477.647 250.038 477.647 261.962 483.92 270.918C484.496 271.74 485.216 272.615 486.657 274.367C488.632 276.768 489.619 277.969 490.321 279.013C498.11 290.608 495.345 306.285 484.061 314.517C483.044 315.259 481.705 316.049 479.028 317.63C477.076 318.783 476.099 319.36 475.277 319.935C466.319 326.205 462.241 337.41 465.073 347.971C465.333 348.941 465.71 350.01 466.465 352.148C467.499 355.08 468.016 356.546 468.318 357.768C471.672 371.327 463.712 385.114 450.293 388.989C449.084 389.338 447.556 389.623 444.499 390.194C442.27 390.609 441.156 390.817 440.186 391.077C429.623 393.905 421.959 403.039 421.008 413.932C420.921 414.932 420.91 416.065 420.887 418.333C420.857 421.442 420.841 422.996 420.707 424.248C419.221 438.136 407.026 448.369 393.091 447.421C391.835 447.336 390.301 447.081 387.234 446.571C384.997 446.2 383.879 446.014 382.879 445.926C371.987 444.971 361.66 450.933 357.041 460.844C356.617 461.753 356.219 462.815 355.422 464.938C354.33 467.849 353.784 469.304 353.23 470.435C347.083 482.977 332.124 488.422 319.353 482.765C318.203 482.255 316.849 481.491 314.141 479.963C312.166 478.849 311.178 478.292 310.269 477.867C300.36 473.244 288.617 475.315 280.887 483.048C280.177 483.758 279.44 484.619 277.966 486.342C275.944 488.704 274.933 489.885 274.026 490.757C263.959 500.441 248.041 500.441 237.974 490.757C237.067 489.885 236.056 488.704 234.034 486.342C232.56 484.619 231.823 483.758 231.113 483.048C223.383 475.315 211.64 473.244 201.731 477.867C200.822 478.292 199.834 478.849 197.859 479.963C195.151 481.491 193.798 482.255 192.647 482.765C179.876 488.422 164.917 482.977 158.77 470.435C158.216 469.304 157.67 467.849 156.578 464.938C155.781 462.815 155.383 461.753 154.959 460.844C150.34 450.933 140.013 444.971 129.121 445.926C128.121 446.014 127.003 446.2 124.766 446.571C121.699 447.081 120.165 447.336 118.909 447.421C104.974 448.369 92.7791 438.136 91.2926 424.248C91.1587 422.996 91.1433 421.442 91.1126 418.333C91.0902 416.065 91.079 414.932 90.9917 413.932C90.0411 403.039 82.3765 393.905 71.814 391.077C70.8445 390.817 69.73 390.609 67.501 390.194C64.4445 389.623 62.9162 389.338 61.7071 388.989C48.2876 385.114 40.3281 371.327 43.6815 357.768C43.9837 356.546 44.5009 355.08 45.5354 352.148C46.2898 350.01 46.6671 348.941 46.927 347.971C49.7594 337.41 45.6812 326.205 36.7228 319.935C35.9005 319.36 34.9244 318.783 32.972 317.63C30.2948 316.049 28.9562 315.259 27.9394 314.517C16.6547 306.285 13.8904 290.608 21.6792 279.013C22.381 277.969 23.3685 276.768 25.3434 274.367C26.7837 272.615 27.5038 271.74 28.0797 270.918C34.3533 261.962 34.3533 250.038 28.0797 241.082C27.5038 240.26 26.7837 239.385 25.3434 237.633C23.3685 235.232 22.381 234.031 21.6792 232.987C13.8904 221.392 16.6547 205.715 27.9394 197.483C28.9562 196.741 30.2948 195.951 32.972 194.37C34.9243 193.217 35.9005 192.64 36.7228 192.065C45.6812 185.795 49.7594 174.59 46.927 164.029C46.6671 163.059 46.2898 161.99 45.5354 159.852C44.5009 156.92 43.9837 155.454 43.6815 154.232C40.3281 140.673 48.2876 126.886 61.7071 123.011C62.9162 122.662 64.4445 122.377 67.501 121.806C69.73 121.391 70.8445 121.183 71.8141 120.923C82.3765 118.095 90.0411 108.961 90.9917 98.0681C91.079 97.0682 91.0902 95.9345 91.1126 93.6672C91.1433 90.5581 91.1587 89.0036 91.2926 87.7521C92.7791 73.8635 104.974 63.6311 118.909 64.579C120.165 64.6644 121.699 64.9192 124.766 65.4288C127.003 65.8005 128.121 65.9863 129.121 66.074C140.013 67.0293 150.34 61.0674 154.959 51.1564C155.383 50.2467 155.781 49.1852 156.578 47.0623C157.67 44.1512 158.216 42.6956 158.77 41.5655C164.917 29.0228 179.876 23.5783 192.647 29.2353C193.798 29.745 195.151 30.509 197.859 32.0369C199.834 33.1512 200.822 33.7083 201.731 34.1327C211.64 38.7559 223.383 36.6854 231.113 28.9519C231.823 28.242 232.56 27.3808 234.034 25.6583Z"
                fill="#FF7800" />
            <path
                d="M236.963 57.8901C241.725 52.3285 244.105 49.5477 246.671 48.0289C252.325 44.6816 259.355 44.6816 265.009 48.0289C267.575 49.5477 269.955 52.3285 274.717 57.8901C278.186 61.9431 279.921 63.9697 281.877 65.3099C286.162 68.2473 291.507 69.1899 296.539 67.8953C298.835 67.3046 301.158 65.9936 305.805 63.3717C312.181 59.7739 315.369 57.9751 318.299 57.4254C324.758 56.2139 331.363 58.6181 335.532 63.6976C337.423 66.0022 338.709 69.4295 341.281 76.2841C343.155 81.2795 344.093 83.7771 345.471 85.7053C348.494 89.9312 353.194 92.6452 358.365 93.1495C360.725 93.3796 363.356 92.9424 368.619 92.0679C375.842 90.8679 379.453 90.2679 382.394 90.7536C388.878 91.8241 394.262 96.3424 396.442 102.541C397.432 105.354 397.468 109.014 397.54 116.335C397.593 121.67 397.619 124.338 398.255 126.621C399.65 131.626 403.139 135.784 407.826 138.027C409.964 139.05 412.586 139.539 417.831 140.517C425.028 141.86 428.627 142.531 431.225 143.994C436.951 147.217 440.466 153.305 440.394 159.875C440.362 162.857 439.144 166.309 436.708 173.213C434.933 178.244 434.045 180.76 433.862 183.123C433.461 188.303 435.317 193.404 438.954 197.114C440.614 198.807 442.911 200.163 447.505 202.876C453.809 206.6 456.961 208.461 458.902 210.724C463.18 215.711 464.401 222.634 462.086 228.784C461.036 231.574 458.711 234.402 454.061 240.056C450.672 244.177 448.977 246.238 447.997 248.396C445.848 253.126 445.848 258.554 447.997 263.284C448.977 265.442 450.672 267.503 454.061 271.624C458.711 277.278 461.036 280.106 462.086 282.896C464.401 289.046 463.18 295.969 458.902 300.956C456.961 303.219 453.809 305.08 447.505 308.804C442.911 311.517 440.614 312.873 438.954 314.566C435.317 318.276 433.461 323.377 433.862 328.557C434.045 330.92 434.933 333.436 436.708 338.467C439.144 345.371 440.362 348.823 440.394 351.805C440.466 358.375 436.951 364.463 431.225 367.686C428.627 369.149 425.028 369.82 417.831 371.163C412.586 372.141 409.964 372.63 407.826 373.653C403.139 375.896 399.65 380.054 398.255 385.059C397.619 387.342 397.593 390.01 397.54 395.345C397.468 402.666 397.432 406.326 396.442 409.139C394.262 415.338 388.878 419.856 382.394 420.926C379.453 421.412 375.842 420.812 368.619 419.612C363.356 418.738 360.725 418.3 358.365 418.53C353.194 419.035 348.494 421.749 345.471 425.975C344.093 427.903 343.155 430.401 341.281 435.396C338.709 442.25 337.423 445.678 335.532 447.982C331.363 453.062 324.758 455.466 318.299 454.255C315.369 453.705 312.181 451.906 305.805 448.308C301.158 445.686 298.835 444.375 296.539 443.785C291.507 442.49 286.162 443.433 281.877 446.37C279.921 447.71 278.186 449.737 274.717 453.79C269.955 459.352 267.575 462.132 265.009 463.651C259.355 466.998 252.325 466.998 246.671 463.651C244.105 462.132 241.725 459.352 236.963 453.79C233.494 449.737 231.759 447.71 229.803 446.37C225.518 443.433 220.173 442.49 215.141 443.785C212.845 444.375 210.522 445.686 205.875 448.308C199.499 451.906 196.311 453.705 193.381 454.255C186.922 455.466 180.317 453.062 176.148 447.982C174.257 445.678 172.971 442.25 170.399 435.396C168.525 430.401 167.587 427.903 166.209 425.975C163.186 421.749 158.486 419.035 153.315 418.53C150.955 418.3 148.324 418.738 143.061 419.612C135.838 420.812 132.227 421.412 129.286 420.926C122.802 419.856 117.418 415.338 115.238 409.139C114.248 406.326 114.212 402.666 114.14 395.345C114.087 390.01 114.061 387.342 113.424 385.059C112.03 380.054 108.541 375.896 103.854 373.653C101.716 372.63 99.0936 372.141 93.8487 371.163C86.6516 369.82 83.053 369.149 80.4549 367.686C74.7288 364.463 71.2141 358.375 71.2857 351.805C71.3182 348.823 72.5361 345.371 74.972 338.467C76.7472 333.436 77.6348 330.92 77.8178 328.557C78.2191 323.377 76.3626 318.276 72.7257 314.566C71.0663 312.873 68.7693 311.517 64.1753 308.804C57.8714 305.08 54.7195 303.219 52.7783 300.956C48.4999 295.969 47.2792 289.046 49.5938 282.896C50.644 280.106 52.9691 277.278 57.6195 271.624C61.0085 267.503 62.7029 265.442 63.6833 263.284C65.8319 258.554 65.8319 253.126 63.6833 248.396C62.7029 246.238 61.0085 244.177 57.6195 240.056C52.9691 234.402 50.644 231.574 49.5938 228.784C47.2792 222.634 48.4999 215.711 52.7783 210.724C54.7195 208.461 57.8714 206.6 64.1753 202.876C68.7693 200.163 71.0663 198.807 72.7257 197.114C76.3626 193.404 78.2191 188.303 77.8178 183.123C77.6348 180.76 76.7472 178.244 74.972 173.213C72.5361 166.309 71.3182 162.857 71.2857 159.875C71.2141 153.305 74.7288 147.217 80.4549 143.994C83.053 142.531 86.6516 141.86 93.8487 140.517C99.0936 139.539 101.716 139.05 103.854 138.027C108.541 135.784 112.03 131.626 113.424 126.621C114.061 124.338 114.087 121.67 114.14 116.335C114.212 109.014 114.248 105.354 115.238 102.541C117.418 96.3424 122.802 91.8241 129.286 90.7536C132.227 90.2679 135.838 90.8679 143.061 92.0679C148.324 92.9424 150.955 93.3796 153.315 93.1495C158.486 92.6452 163.186 89.9312 166.209 85.7053C167.587 83.7772 168.525 81.2795 170.399 76.2841C172.971 69.4295 174.257 66.0022 176.148 63.6975C180.317 58.6181 186.922 56.2139 193.381 57.4254C196.311 57.975 199.499 59.7739 205.875 63.3717C210.522 65.9936 212.845 67.3046 215.141 67.8953C220.173 69.1899 225.518 68.2473 229.803 65.3099C231.759 63.9697 233.494 61.9431 236.963 57.8901Z"
                fill="#241F31" />
            <path
                d="M459.034 -169.342C461.056 -171.704 462.067 -172.885 462.974 -173.757C473.041 -183.441 488.959 -183.441 499.026 -173.757C499.933 -172.885 500.944 -171.704 502.966 -169.342C504.44 -167.619 505.177 -166.758 505.887 -166.048C513.617 -158.315 525.36 -156.244 535.269 -160.867C536.178 -161.292 537.166 -161.849 539.141 -162.963C541.849 -164.491 543.203 -165.255 544.353 -165.765C557.124 -171.422 572.083 -165.977 578.23 -153.435C578.784 -152.304 579.33 -150.849 580.422 -147.938C581.219 -145.815 581.617 -144.753 582.041 -143.844C586.66 -133.933 596.987 -127.971 607.879 -128.926C608.879 -129.014 609.997 -129.2 612.234 -129.571C615.301 -130.081 616.835 -130.336 618.091 -130.421C632.026 -131.369 644.221 -121.136 645.707 -107.248C645.841 -105.996 645.857 -104.442 645.887 -101.333C645.91 -99.0655 645.921 -97.9318 646.008 -96.9319C646.959 -86.0388 654.623 -76.9046 665.186 -74.0769C666.155 -73.8173 667.27 -73.6094 669.499 -73.1936C672.556 -72.6235 674.084 -72.3384 675.293 -71.9892C688.712 -68.1136 696.672 -54.3275 693.318 -40.768C693.016 -39.5462 692.499 -38.0802 691.465 -35.1481C690.71 -33.0099 690.333 -31.9407 690.073 -30.9713C687.241 -20.41 691.319 -9.20525 700.277 -2.93542C701.099 -2.35989 702.076 -1.78337 704.028 -0.630295C706.705 0.950867 708.044 1.74144 709.061 2.48315C720.345 10.7148 723.11 26.3918 715.321 37.9865C714.619 39.0313 713.632 40.232 711.657 42.6335C710.216 44.3847 709.496 45.2604 708.92 46.0824C702.647 55.0381 702.647 66.9619 708.92 75.9176C709.496 76.7396 710.216 77.6153 711.657 79.3665C713.632 81.768 714.619 82.9687 715.321 84.0135C723.11 95.6082 720.345 111.285 709.061 119.517C708.044 120.259 706.705 121.049 704.028 122.63C702.076 123.783 701.099 124.36 700.277 124.935C691.319 131.205 687.241 142.41 690.073 152.971C690.333 153.941 690.71 155.01 691.465 157.148C692.499 160.08 693.016 161.546 693.318 162.768C696.672 176.327 688.712 190.114 675.293 193.989C674.084 194.338 672.556 194.623 669.499 195.194C667.27 195.609 666.156 195.817 665.186 196.077C654.623 198.905 646.959 208.039 646.008 218.932C645.921 219.932 645.91 221.065 645.887 223.333C645.857 226.442 645.841 227.996 645.707 229.248C644.221 243.136 632.026 253.369 618.091 252.421C616.835 252.336 615.301 252.081 612.234 251.571C609.997 251.2 608.879 251.014 607.879 250.926C596.987 249.971 586.66 255.933 582.041 265.844C581.617 266.753 581.219 267.815 580.422 269.938C579.33 272.849 578.784 274.304 578.23 275.435C572.083 287.977 557.124 293.422 544.353 287.765C543.203 287.255 541.849 286.491 539.141 284.963C537.166 283.849 536.178 283.292 535.269 282.867C525.36 278.244 513.617 280.315 505.887 288.048C505.177 288.758 504.44 289.619 502.966 291.342C500.944 293.704 499.933 294.885 499.026 295.757C488.959 305.441 473.041 305.441 462.974 295.757C462.067 294.885 461.056 293.704 459.034 291.342C457.56 289.619 456.823 288.758 456.113 288.048C448.383 280.315 436.64 278.244 426.731 282.867C425.822 283.292 424.834 283.849 422.859 284.963C420.151 286.491 418.798 287.255 417.647 287.765C404.876 293.422 389.917 287.977 383.77 275.435C383.216 274.304 382.67 272.849 381.578 269.938C380.781 267.815 380.383 266.753 379.959 265.844C375.34 255.933 365.013 249.971 354.121 250.926C353.121 251.014 352.003 251.2 349.766 251.571C346.699 252.081 345.165 252.336 343.909 252.421C329.974 253.369 317.779 243.136 316.293 229.248C316.159 227.996 316.143 226.442 316.113 223.333C316.09 221.065 316.079 219.932 315.992 218.932C315.041 208.039 307.377 198.905 296.814 196.077C295.844 195.817 294.73 195.609 292.501 195.194C289.444 194.623 287.916 194.338 286.707 193.989C273.288 190.114 265.328 176.327 268.682 162.768C268.984 161.546 269.501 160.08 270.535 157.148C271.29 155.01 271.667 153.941 271.927 152.971C274.759 142.41 270.681 131.205 261.723 124.935C260.901 124.36 259.924 123.783 257.972 122.63C255.295 121.049 253.956 120.259 252.939 119.517C241.655 111.285 238.89 95.6082 246.679 84.0135C247.381 82.9687 248.368 81.768 250.343 79.3665C251.784 77.6153 252.504 76.7396 253.08 75.9176C259.353 66.9619 259.353 55.0381 253.08 46.0824C252.504 45.2604 251.784 44.3847 250.343 42.6335C248.368 40.232 247.381 39.0313 246.679 37.9865C238.89 26.3918 241.655 10.7148 252.939 2.48315C253.956 1.74144 255.295 0.950867 257.972 -0.630295C259.924 -1.78337 260.901 -2.35991 261.723 -2.93542C270.681 -9.20525 274.759 -20.41 271.927 -30.9713C271.667 -31.9407 271.29 -33.0098 270.535 -35.1481C269.501 -38.0802 268.984 -39.5463 268.682 -40.768C265.328 -54.3275 273.288 -68.1136 286.707 -71.9892C287.916 -72.3384 289.444 -72.6235 292.501 -73.1936C294.73 -73.6094 295.845 -73.8173 296.814 -74.0769C307.377 -76.9046 315.041 -86.0388 315.992 -96.9319C316.079 -97.9318 316.09 -99.0655 316.113 -101.333C316.143 -104.442 316.159 -105.996 316.293 -107.248C317.779 -121.136 329.974 -131.369 343.909 -130.421C345.165 -130.336 346.699 -130.081 349.766 -129.571C352.003 -129.2 353.121 -129.014 354.121 -128.926C365.013 -127.971 375.34 -133.933 379.959 -143.844C380.383 -144.753 380.781 -145.815 381.578 -147.938C382.67 -150.849 383.216 -152.304 383.77 -153.435C389.917 -165.977 404.876 -171.422 417.647 -165.765C418.798 -165.255 420.151 -164.491 422.859 -162.963C424.834 -161.849 425.822 -161.292 426.731 -160.867C436.64 -156.244 448.383 -158.315 456.113 -166.048C456.823 -166.758 457.56 -167.619 459.034 -169.342Z"
                fill="url(#paint0_linear_39_20)" />
            <path
                d="M462.123 -136.95C466.885 -142.512 469.265 -145.292 471.831 -146.811C477.485 -150.158 484.515 -150.158 490.169 -146.811C492.735 -145.292 495.115 -142.512 499.877 -136.95C503.346 -132.897 505.081 -130.87 507.037 -129.53C511.322 -126.593 516.667 -125.65 521.699 -126.945C523.995 -127.535 526.318 -128.846 530.965 -131.468C537.341 -135.066 540.529 -136.865 543.459 -137.415C549.918 -138.626 556.523 -136.222 560.692 -131.142C562.583 -128.838 563.869 -125.41 566.441 -118.556C568.315 -113.561 569.253 -111.063 570.631 -109.135C573.654 -104.909 578.354 -102.195 583.525 -101.69C585.885 -101.46 588.516 -101.898 593.779 -102.772C601.002 -103.972 604.613 -104.572 607.554 -104.086C614.038 -103.016 619.422 -98.4975 621.602 -92.2986C622.592 -89.486 622.628 -85.8256 622.7 -78.5047C622.753 -73.1696 622.779 -70.502 623.415 -68.2186C624.81 -63.2139 628.299 -59.0558 632.986 -56.8133C635.124 -55.7902 637.746 -55.301 642.991 -54.3226C650.188 -52.9801 653.787 -52.3089 656.385 -50.8464C662.111 -47.623 665.626 -41.5354 665.554 -34.9647C665.522 -31.9835 664.304 -28.5314 661.868 -21.6273C660.093 -16.5959 659.205 -14.0802 659.022 -11.7168C658.621 -6.53688 660.477 -1.43626 664.114 2.27383C665.774 3.96663 668.071 5.32324 672.665 8.03645C678.969 11.7596 682.121 13.6211 684.062 15.884C688.34 20.8714 689.561 27.794 687.246 33.944C686.196 36.7343 683.871 39.5616 679.221 45.2162C675.832 49.3371 674.137 51.3975 673.157 53.5558C671.008 58.286 671.008 63.714 673.157 68.4442C674.137 70.6025 675.832 72.6629 679.221 76.7838C683.871 82.4384 686.196 85.2657 687.246 88.056C689.561 94.206 688.34 101.129 684.062 106.116C682.121 108.379 678.969 110.24 672.665 113.964C668.071 116.677 665.774 118.033 664.114 119.726C660.477 123.436 658.621 128.537 659.022 133.717C659.205 136.08 660.093 138.596 661.868 143.627C664.304 150.531 665.522 153.983 665.554 156.965C665.626 163.535 662.111 169.623 656.385 172.846C653.787 174.309 650.188 174.98 642.991 176.323C637.746 177.301 635.124 177.79 632.986 178.813C628.299 181.056 624.81 185.214 623.415 190.219C622.779 192.502 622.753 195.17 622.7 200.505C622.628 207.826 622.592 211.486 621.602 214.299C619.422 220.498 614.038 225.016 607.554 226.086C604.613 226.572 601.002 225.972 593.779 224.772C588.516 223.898 585.885 223.46 583.525 223.69C578.354 224.195 573.654 226.909 570.631 231.135C569.253 233.063 568.315 235.561 566.441 240.556C563.869 247.41 562.583 250.838 560.692 253.142C556.523 258.222 549.918 260.626 543.459 259.415C540.529 258.865 537.341 257.066 530.965 253.468C526.318 250.846 523.995 249.535 521.699 248.945C516.667 247.65 511.322 248.593 507.037 251.53C505.081 252.87 503.346 254.897 499.877 258.95C495.115 264.512 492.735 267.292 490.169 268.811C484.515 272.158 477.485 272.158 471.831 268.811C469.265 267.292 466.885 264.512 462.123 258.95C458.654 254.897 456.919 252.87 454.963 251.53C450.678 248.593 445.333 247.65 440.301 248.945C438.005 249.535 435.682 250.846 431.035 253.468C424.659 257.066 421.471 258.865 418.541 259.415C412.082 260.626 405.477 258.222 401.308 253.142C399.417 250.838 398.131 247.41 395.559 240.556C393.685 235.561 392.747 233.063 391.369 231.135C388.346 226.909 383.646 224.195 378.475 223.69C376.115 223.46 373.484 223.898 368.221 224.772C360.998 225.972 357.387 226.572 354.446 226.086C347.962 225.016 342.578 220.498 340.398 214.299C339.408 211.486 339.372 207.826 339.3 200.505C339.247 195.17 339.221 192.502 338.584 190.219C337.19 185.214 333.701 181.056 329.014 178.813C326.876 177.79 324.254 177.301 319.009 176.323C311.812 174.98 308.213 174.309 305.615 172.846C299.889 169.623 296.374 163.535 296.446 156.965C296.478 153.983 297.696 150.531 300.132 143.627C301.907 138.596 302.795 136.08 302.978 133.717C303.379 128.537 301.523 123.436 297.886 119.726C296.226 118.033 293.929 116.677 289.335 113.964C283.031 110.24 279.879 108.379 277.938 106.116C273.66 101.129 272.439 94.206 274.754 88.056C275.804 85.2657 278.129 82.4384 282.779 76.7838C286.168 72.6629 287.863 70.6025 288.843 68.4442C290.992 63.714 290.992 58.286 288.843 53.5558C287.863 51.3975 286.168 49.3371 282.779 45.2162C278.129 39.5616 275.804 36.7343 274.754 33.944C272.439 27.794 273.66 20.8714 277.938 15.884C279.879 13.6211 283.031 11.7596 289.335 8.03647C293.929 5.32324 296.226 3.96663 297.886 2.27383C301.523 -1.43628 303.379 -6.53688 302.978 -11.7168C302.795 -14.0802 301.907 -16.5959 300.132 -21.6273C297.696 -28.5314 296.478 -31.9835 296.446 -34.9647C296.374 -41.5354 299.889 -47.623 305.615 -50.8464C308.213 -52.3089 311.812 -52.9801 319.009 -54.3226C324.254 -55.301 326.876 -55.7902 329.014 -56.8133C333.701 -59.0558 337.19 -63.2139 338.584 -68.2186C339.221 -70.502 339.247 -73.1696 339.3 -78.5047C339.372 -85.8256 339.408 -89.486 340.398 -92.2986C342.578 -98.4975 347.962 -103.016 354.446 -104.086C357.387 -104.572 360.998 -103.972 368.221 -102.772C373.484 -101.898 376.115 -101.46 378.475 -101.69C383.646 -102.195 388.346 -104.909 391.369 -109.135C392.747 -111.063 393.685 -113.561 395.559 -118.556C398.131 -125.41 399.417 -128.838 401.308 -131.142C405.477 -136.222 412.082 -138.626 418.541 -137.415C421.471 -136.865 424.659 -135.066 431.035 -131.468C435.682 -128.846 438.005 -127.535 440.301 -126.945C445.333 -125.65 450.678 -126.593 454.963 -129.53C456.919 -130.87 458.654 -132.897 462.123 -136.95Z"
                fill="url(#paint1_linear_39_20)" />
        </g>
    </g>
    <defs>
        <linearGradient id="paint0_linear_39_20" x1="302.58" y1="211.4" x2="514.58" y2="-2.10005"
            gradientUnits="userSpaceOnUse">
            <stop stop-color="#FF7800" />
            <stop offset="1" stop-color="#C64600" />
        </linearGradient>
        <linearGradient id="paint1_linear_39_20" x1="297" y1="61" x2="453" y2="245" gradientUnits="userSpaceOnUse">
            <stop stop-color="#BB6BD9" />
            <stop offset="0.1" stop-color="#9B51E0" />
            <stop offset="0.2" stop-color="#56CCF2" />
            <stop offset="0.3" stop-color="#2D9CDB" />
            <stop offset="0.4" stop-color="#2F80ED" />
            <stop offset="0.5" stop-color="#6FCF97" />
            <stop offset="0.6" stop-color="#27AE60" />
            <stop offset="0.7" stop-color="#219653" />
            <stop offset="0.8" stop-color="#F2C94C" />
            <stop offset="0.9" stop-color="#F2994A" />
            <stop offset="1" stop-color="#EB5757" />
        </linearGradient>
        <clipPath id="clip0_39_20">
            <rect width="512" height="512" fill="white" />
        </clipPath>
    </defs>
</svg>